<svg width="168" height="110" viewBox="0 0 168 110" fill="none" xmlns="http://www.w3.org/2000/svg">
<rect x="0.767445" y="40.6358" width="81" height="79" rx="15" transform="rotate(-30 0.767445 40.6358)" fill="white"/>
<ellipse cx="31.542" cy="44.1218" rx="8" ry="7.5" transform="rotate(-30 31.542 44.1218)" fill="#E1DCE0"/>
<ellipse cx="42.042" cy="62.3083" rx="8" ry="7.5" transform="rotate(-30 42.042 62.3083)" fill="#E1DCE0"/>
<ellipse cx="68.8887" cy="46.8083" rx="8" ry="7.5" transform="rotate(-30 68.8887 46.8083)" fill="#E1DCE0"/>
<ellipse cx="79.3887" cy="64.9948" rx="8" ry="7.5" transform="rotate(-30 79.3887 64.9948)" fill="#E1DCE0"/>
<ellipse cx="58.3888" cy="28.6218" rx="8" ry="7.5" transform="rotate(-30 58.3888 28.6218)" fill="#E1DCE0"/>
<ellipse cx="52.542" cy="80.4948" rx="8" ry="7.5" transform="rotate(-30 52.542 80.4948)" fill="#E1DCE0"/>
<rect x="80.4467" y="9" width="81" height="79" rx="15" transform="rotate(15 80.4467 9)" fill="#E1DCE0"/>
<rect x="89.4467" y="8" width="81" height="79" rx="15" transform="rotate(15 89.4467 8)" fill="white"/>
<path d="M112.342 38.4638C111.27 42.4648 106.941 44.7813 102.674 43.6377C98.406 42.4942 95.8154 38.3237 96.8874 34.3227C97.9595 30.3217 102.288 28.0053 106.556 29.1488C110.824 30.2924 113.414 34.4628 112.342 38.4638Z" fill="#E1DCE0"/>
<ellipse cx="133.038" cy="77.138" rx="8" ry="7.5" transform="rotate(15 133.038 77.138)" fill="#E1DCE0"/>
<ellipse cx="96.3326" cy="67.3029" rx="8" ry="7.5" transform="rotate(15 96.3326 67.3029)" fill="#E1DCE0"/>
<ellipse cx="141.32" cy="46.2284" rx="8" ry="7.5" transform="rotate(15 141.32 46.2284)" fill="#E1DCE0"/>
</svg>
